<svg width="356" height="418" viewBox="0 0 356 418" fill="none" xmlns="http://www.w3.org/2000/svg">
<rect width="356" height="418" rx="4" fill="#2F2F2F"/>
<path d="M53.352 90.36C49.5424 91.4099 45.7586 92.5516 42.004 93.784C41.6612 93.8951 41.3564 94.1002 41.1245 94.376C40.8925 94.6518 40.7427 94.9872 40.692 95.344C38.476 111.972 43.596 124.104 49.704 132.096C52.2901 135.514 55.3736 138.524 58.852 141.028C60.236 142.004 61.46 142.708 62.424 143.16C62.904 143.388 63.296 143.54 63.596 143.632C63.7272 143.678 63.8625 143.712 64 143.732C64.1359 143.71 64.2697 143.676 64.4 143.632C64.704 143.54 65.096 143.388 65.576 143.16C66.536 142.708 67.764 142 69.148 141.028C72.6264 138.524 75.7099 135.514 78.296 132.096C84.404 124.108 89.524 111.972 87.308 95.344C87.2578 94.987 87.1082 94.6514 86.8761 94.3755C86.6441 94.0996 86.3391 93.8946 85.996 93.784C83.392 92.932 78.996 91.544 74.648 90.364C70.208 89.16 66.124 88.268 64 88.268C61.88 88.268 57.792 89.156 53.352 90.36ZM52.288 86.24C56.628 85.06 61.24 84 64 84C66.76 84 71.372 85.06 75.712 86.24C80.152 87.44 84.628 88.86 87.26 89.72C88.3605 90.0834 89.3361 90.7499 90.0748 91.6428C90.8135 92.5357 91.2853 93.619 91.436 94.768C93.82 112.676 88.288 125.948 81.576 134.728C78.7298 138.484 75.336 141.791 71.508 144.54C70.1844 145.491 68.782 146.327 67.316 147.04C66.196 147.568 64.992 148 64 148C63.008 148 61.808 147.568 60.684 147.04C59.2181 146.328 57.8156 145.491 56.492 144.54C52.6641 141.791 49.2703 138.484 46.424 134.728C39.712 125.948 34.18 112.676 36.564 94.768C36.7148 93.619 37.1866 92.5357 37.9253 91.6428C38.664 90.7499 39.6396 90.0834 40.74 89.72C44.5608 88.4672 48.4112 87.3069 52.288 86.24Z" fill="white"/>
<path d="M75.416 104.584C75.6023 104.77 75.75 104.99 75.8509 105.233C75.9517 105.476 76.0036 105.737 76.0036 106C76.0036 106.263 75.9517 106.524 75.8509 106.767C75.75 107.01 75.6023 107.23 75.416 107.416L63.416 119.416C63.2302 119.602 63.0095 119.75 62.7666 119.851C62.5236 119.952 62.2631 120.004 62 120.004C61.737 120.004 61.4765 119.952 61.2335 119.851C60.9905 119.75 60.7698 119.602 60.584 119.416L54.584 113.416C54.3981 113.23 54.2506 113.009 54.1499 112.766C54.0493 112.523 53.9975 112.263 53.9975 112C53.9975 111.737 54.0493 111.477 54.1499 111.234C54.2506 110.991 54.3981 110.77 54.584 110.584C54.77 110.398 54.9907 110.251 55.2337 110.15C55.4766 110.049 55.737 109.997 56 109.997C56.263 109.997 56.5234 110.049 56.7664 110.15C57.0093 110.251 57.2301 110.398 57.416 110.584L62 115.172L72.584 104.584C72.7698 104.398 72.9905 104.25 73.2335 104.149C73.4765 104.048 73.737 103.996 74 103.996C74.2631 103.996 74.5236 104.048 74.7666 104.149C75.0095 104.25 75.2302 104.398 75.416 104.584Z" fill="white"/>
<path d="M35.1705 215V188.818H50.8693V191.631H38.3409V200.477H49.6932V203.29H38.3409V215H35.1705ZM78.3903 201.909C78.3903 204.67 77.8917 207.057 76.8945 209.068C75.8974 211.08 74.5295 212.631 72.7908 213.722C71.0522 214.812 69.0664 215.358 66.8335 215.358C64.6005 215.358 62.6147 214.812 60.8761 213.722C59.1374 212.631 57.7695 211.08 56.7724 209.068C55.7752 207.057 55.2766 204.67 55.2766 201.909C55.2766 199.148 55.7752 196.761 56.7724 194.75C57.7695 192.739 59.1374 191.188 60.8761 190.097C62.6147 189.006 64.6005 188.46 66.8335 188.46C69.0664 188.46 71.0522 189.006 72.7908 190.097C74.5295 191.188 75.8974 192.739 76.8945 194.75C77.8917 196.761 78.3903 199.148 78.3903 201.909ZM75.3221 201.909C75.3221 199.642 74.9428 197.729 74.1843 196.169C73.4343 194.609 72.4158 193.429 71.1289 192.628C69.8505 191.827 68.4187 191.426 66.8335 191.426C65.2482 191.426 63.8121 191.827 62.5252 192.628C61.2468 193.429 60.2283 194.609 59.4698 196.169C58.7198 197.729 58.3448 199.642 58.3448 201.909C58.3448 204.176 58.7198 206.089 59.4698 207.649C60.2283 209.209 61.2468 210.389 62.5252 211.19C63.8121 211.991 65.2482 212.392 66.8335 212.392C68.4187 212.392 69.8505 211.991 71.1289 211.19C72.4158 210.389 73.4343 209.209 74.1843 207.649C74.9428 206.089 75.3221 204.176 75.3221 201.909ZM104.483 188.818V215H101.414L87.1474 194.443H86.8917V215H83.7212V188.818H86.7894L101.108 209.426H101.363V188.818H104.483ZM109.395 191.631V188.818H129.031V191.631H120.798V215H117.628V191.631H109.395ZM133.924 215V188.818H149.725V191.631H137.095V200.477H148.907V203.29H137.095V212.188H149.93V215H133.924ZM176.508 197H173.338C173.15 196.088 172.822 195.287 172.353 194.597C171.893 193.906 171.331 193.327 170.666 192.858C170.01 192.381 169.281 192.023 168.48 191.784C167.679 191.545 166.843 191.426 165.974 191.426C164.389 191.426 162.953 191.827 161.666 192.628C160.387 193.429 159.369 194.609 158.61 196.169C157.86 197.729 157.485 199.642 157.485 201.909C157.485 204.176 157.86 206.089 158.61 207.649C159.369 209.209 160.387 210.389 161.666 211.19C162.953 211.991 164.389 212.392 165.974 212.392C166.843 212.392 167.679 212.273 168.48 212.034C169.281 211.795 170.01 211.442 170.666 210.973C171.331 210.496 171.893 209.912 172.353 209.222C172.822 208.523 173.15 207.722 173.338 206.818H176.508C176.27 208.156 175.835 209.354 175.204 210.411C174.574 211.467 173.789 212.366 172.852 213.108C171.914 213.841 170.862 214.399 169.694 214.783C168.535 215.166 167.295 215.358 165.974 215.358C163.741 215.358 161.755 214.812 160.017 213.722C158.278 212.631 156.91 211.08 155.913 209.068C154.916 207.057 154.417 204.67 154.417 201.909C154.417 199.148 154.916 196.761 155.913 194.75C156.91 192.739 158.278 191.188 160.017 190.097C161.755 189.006 163.741 188.46 165.974 188.46C167.295 188.46 168.535 188.652 169.694 189.036C170.862 189.419 171.914 189.982 172.852 190.723C173.789 191.456 174.574 192.351 175.204 193.408C175.835 194.456 176.27 195.653 176.508 197ZM181.631 215V188.818H190.478C192.523 188.818 194.202 189.168 195.515 189.866C196.827 190.557 197.799 191.507 198.43 192.717C199.06 193.928 199.376 195.304 199.376 196.847C199.376 198.389 199.06 199.757 198.43 200.95C197.799 202.143 196.832 203.081 195.528 203.763C194.224 204.436 192.558 204.773 190.529 204.773H183.37V201.909H190.427C191.825 201.909 192.95 201.705 193.802 201.295C194.663 200.886 195.285 200.307 195.668 199.557C196.06 198.798 196.256 197.895 196.256 196.847C196.256 195.798 196.06 194.882 195.668 194.098C195.276 193.314 194.65 192.709 193.789 192.283C192.928 191.848 191.79 191.631 190.376 191.631H184.802V215H181.631ZM193.955 203.239L200.398 215H196.717L190.376 203.239H193.955ZM204.659 215V188.818H220.46V191.631H207.829V200.477H219.642V203.29H207.829V212.188H220.664V215H204.659ZM234.254 215H226.174V188.818H234.612C237.152 188.818 239.325 189.342 241.132 190.391C242.939 191.43 244.324 192.926 245.287 194.878C246.25 196.821 246.731 199.148 246.731 201.858C246.731 204.585 246.245 206.933 245.274 208.902C244.302 210.862 242.887 212.371 241.029 213.428C239.172 214.476 236.913 215 234.254 215ZM229.345 212.188H234.049C236.214 212.188 238.008 211.77 239.431 210.935C240.855 210.099 241.916 208.911 242.615 207.368C243.314 205.825 243.663 203.989 243.663 201.858C243.663 199.744 243.318 197.925 242.627 196.399C241.937 194.865 240.906 193.689 239.534 192.871C238.162 192.044 236.453 191.631 234.407 191.631H229.345V212.188ZM47.8011 241C47.733 240.148 47.4134 239.483 46.8423 239.006C46.2798 238.528 45.4233 238.29 44.2727 238.29C43.5398 238.29 42.9389 238.379 42.4702 238.558C42.0099 238.729 41.669 238.963 41.4474 239.261C41.2259 239.56 41.1108 239.901 41.1023 240.284C41.0852 240.599 41.1406 240.885 41.2685 241.141C41.4048 241.388 41.6179 241.614 41.9077 241.818C42.1974 242.014 42.5682 242.193 43.0199 242.355C43.4716 242.517 44.0085 242.662 44.6307 242.79L46.7784 243.25C48.2273 243.557 49.4673 243.962 50.4986 244.464C51.5298 244.967 52.3736 245.56 53.0298 246.241C53.6861 246.915 54.1676 247.673 54.4744 248.517C54.7898 249.361 54.9517 250.281 54.9602 251.278C54.9517 253 54.5213 254.457 53.669 255.651C52.8168 256.844 51.598 257.751 50.0128 258.374C48.4361 258.996 46.5398 259.307 44.3239 259.307C42.0483 259.307 40.0625 258.97 38.3665 258.297C36.679 257.624 35.3665 256.588 34.429 255.19C33.5 253.784 33.0313 251.986 33.0227 249.795H39.7727C39.8153 250.597 40.0156 251.27 40.3736 251.815C40.7315 252.361 41.2344 252.774 41.8821 253.055C42.5384 253.337 43.3182 253.477 44.2216 253.477C44.9801 253.477 45.6151 253.384 46.1264 253.196C46.6378 253.009 47.0256 252.749 47.2898 252.416C47.554 252.084 47.6903 251.705 47.6989 251.278C47.6903 250.878 47.5582 250.528 47.3026 250.23C47.0554 249.923 46.6463 249.651 46.0753 249.412C45.5043 249.165 44.733 248.935 43.7614 248.722L41.1534 248.159C38.8352 247.656 37.0071 246.817 35.669 245.641C34.3395 244.456 33.679 242.841 33.6875 240.795C33.679 239.134 34.1222 237.68 35.017 236.436C35.9205 235.183 37.169 234.207 38.7628 233.509C40.3651 232.81 42.2017 232.46 44.2727 232.46C46.3864 232.46 48.2145 232.814 49.7571 233.521C51.2997 234.229 52.4886 235.226 53.3239 236.513C54.1676 237.791 54.5938 239.287 54.6023 241H47.8011ZM57.6641 259V232.818H76.5334V238.545H64.772V243.045H75.5618V248.773H64.772V253.273H76.4822V259H57.6641ZM80.0586 232.818H88.9052L94.9904 247.648H95.2972L101.382 232.818H110.229V259H103.275V243.864H103.07L97.2404 258.795H93.0472L87.2177 243.761H87.0131V259H80.0586V232.818ZM120.77 259V232.818H139.179V238.545H127.877V243.045H138.054V248.773H127.877V259H120.77ZM141.793 259V232.818H153.094C155.037 232.818 156.738 233.172 158.195 233.879C159.652 234.587 160.786 235.605 161.596 236.935C162.405 238.264 162.81 239.858 162.81 241.716C162.81 243.591 162.392 245.172 161.557 246.459C160.73 247.746 159.567 248.717 158.067 249.374C156.576 250.03 154.833 250.358 152.838 250.358H146.088V244.835H151.407C152.242 244.835 152.953 244.733 153.542 244.528C154.138 244.315 154.594 243.979 154.909 243.518C155.233 243.058 155.395 242.457 155.395 241.716C155.395 240.966 155.233 240.357 154.909 239.888C154.594 239.411 154.138 239.061 153.542 238.839C152.953 238.609 152.242 238.494 151.407 238.494H148.901V259H141.793ZM157.134 246.983L163.679 259H155.958L149.566 246.983H157.134ZM172.641 259H164.971L173.613 232.818H183.328L191.971 259H184.3L178.573 240.028H178.368L172.641 259ZM171.209 248.67H185.63V253.989H171.209V248.67ZM209.987 232.818H217.094V249.591C217.094 251.585 216.617 253.311 215.663 254.768C214.717 256.217 213.396 257.338 211.7 258.131C210.004 258.915 208.035 259.307 205.793 259.307C203.535 259.307 201.558 258.915 199.862 258.131C198.165 257.338 196.844 256.217 195.898 254.768C194.961 253.311 194.492 251.585 194.492 249.591V232.818H201.6V248.977C201.6 249.787 201.779 250.511 202.137 251.151C202.495 251.781 202.989 252.276 203.62 252.634C204.259 252.991 204.984 253.17 205.793 253.17C206.612 253.17 207.336 252.991 207.967 252.634C208.597 252.276 209.092 251.781 209.45 251.151C209.808 250.511 209.987 249.787 209.987 248.977V232.818ZM230.547 259H220.473V232.818H230.444C233.137 232.818 235.464 233.342 237.424 234.391C239.393 235.43 240.91 236.93 241.975 238.891C243.049 240.842 243.586 243.182 243.586 245.909C243.586 248.636 243.054 250.98 241.988 252.94C240.923 254.892 239.414 256.392 237.463 257.44C235.511 258.48 233.206 259 230.547 259ZM227.581 252.966H230.291C231.586 252.966 232.69 252.757 233.602 252.339C234.522 251.922 235.221 251.202 235.699 250.179C236.184 249.156 236.427 247.733 236.427 245.909C236.427 244.085 236.18 242.662 235.686 241.639C235.2 240.616 234.484 239.896 233.538 239.479C232.6 239.061 231.45 238.852 230.086 238.852H227.581V252.966ZM246.875 259V232.818H265.744V238.545H253.983V243.045H264.773V248.773H253.983V253.273H265.693V259H246.875Z" fill="#67D840"/>
<path d="M43.3374 296.636V309H41.6229L35.3384 299.933H35.2237V309H33.3583V296.636H35.0849L41.3754 305.716H41.4901V296.636H43.3374ZM48.6121 309.205C48.0245 309.205 47.4933 309.097 47.0184 308.879C46.5435 308.658 46.1672 308.338 45.8895 307.919C45.6158 307.501 45.479 306.988 45.479 306.38C45.479 305.857 45.5796 305.426 45.7808 305.088C45.982 304.75 46.2537 304.482 46.5958 304.285C46.9379 304.088 47.3202 303.939 47.7428 303.838C48.1654 303.738 48.596 303.661 49.0347 303.609C49.5901 303.545 50.0409 303.492 50.387 303.452C50.7331 303.408 50.9846 303.337 51.1416 303.241C51.2986 303.144 51.377 302.987 51.377 302.77V302.728C51.377 302.2 51.2281 301.792 50.9303 301.502C50.6365 301.212 50.1978 301.067 49.6143 301.067C49.0065 301.067 48.5276 301.202 48.1775 301.472C47.8314 301.738 47.5919 302.033 47.4591 302.359L45.7627 301.973C45.9639 301.41 46.2577 300.955 46.6441 300.609C47.0345 300.259 47.4832 300.005 47.9903 299.848C48.4974 299.687 49.0307 299.607 49.5901 299.607C49.9604 299.607 50.3528 299.651 50.7673 299.739C51.1859 299.824 51.5763 299.981 51.9385 300.21C52.3047 300.44 52.6046 300.768 52.838 301.194C53.0714 301.617 53.1881 302.166 53.1881 302.842V309H51.4253V307.732H51.3529C51.2362 307.966 51.0611 308.195 50.8277 308.42C50.5943 308.646 50.2944 308.833 49.9282 308.982C49.5619 309.131 49.1233 309.205 48.6121 309.205ZM49.0045 307.756C49.5036 307.756 49.9302 307.658 50.2844 307.461C50.6425 307.263 50.9142 307.006 51.0993 306.688C51.2885 306.366 51.3831 306.022 51.3831 305.656V304.46C51.3187 304.525 51.1939 304.585 51.0088 304.641C50.8277 304.694 50.6204 304.74 50.387 304.78C50.1536 304.816 49.9262 304.851 49.7048 304.883C49.4835 304.911 49.2983 304.935 49.1494 304.955C48.7993 305 48.4793 305.074 48.1895 305.179C47.9038 305.283 47.6744 305.434 47.5013 305.631C47.3323 305.825 47.2478 306.082 47.2478 306.404C47.2478 306.851 47.4128 307.189 47.7428 307.418C48.0728 307.644 48.4934 307.756 49.0045 307.756ZM47.8696 298.604L46.6562 298.568C46.6562 297.9 46.8353 297.367 47.1934 296.968C47.5557 296.57 48.0024 296.371 48.5336 296.371C48.7791 296.371 48.9945 296.413 49.1796 296.498C49.3647 296.578 49.5378 296.673 49.6988 296.781C49.8638 296.886 50.0268 296.98 50.1878 297.065C50.3528 297.145 50.5359 297.186 50.7371 297.186C50.9706 297.186 51.1597 297.097 51.3046 296.92C51.4535 296.743 51.528 296.524 51.528 296.262L52.7172 296.341C52.7172 297.013 52.5361 297.542 52.1739 297.928C51.8117 298.311 51.367 298.504 50.8398 298.508C50.554 298.508 50.3166 298.468 50.1274 298.387C49.9423 298.303 49.7773 298.208 49.6324 298.103C49.4875 297.995 49.3386 297.898 49.1856 297.814C49.0327 297.729 48.8496 297.687 48.6363 297.687C48.4109 297.687 48.2258 297.775 48.0809 297.952C47.94 298.125 47.8696 298.343 47.8696 298.604ZM59.4982 309.187C58.6289 309.187 57.8703 308.988 57.2223 308.589C56.5743 308.191 56.0713 307.634 55.7131 306.917C55.3549 306.201 55.1758 305.364 55.1758 304.406C55.1758 303.444 55.3549 302.603 55.7131 301.882C56.0713 301.162 56.5743 300.603 57.2223 300.204C57.8703 299.806 58.6289 299.607 59.4982 299.607C60.3675 299.607 61.1262 299.806 61.7741 300.204C62.4221 300.603 62.9252 301.162 63.2834 301.882C63.6416 302.603 63.8207 303.444 63.8207 304.406C63.8207 305.364 63.6416 306.201 63.2834 306.917C62.9252 307.634 62.4221 308.191 61.7741 308.589C61.1262 308.988 60.3675 309.187 59.4982 309.187ZM59.5043 307.672C60.0677 307.672 60.5346 307.523 60.9048 307.225C61.2751 306.927 61.5488 306.531 61.7259 306.036C61.907 305.541 61.9975 304.996 61.9975 304.4C61.9975 303.808 61.907 303.265 61.7259 302.77C61.5488 302.271 61.2751 301.87 60.9048 301.569C60.5346 301.267 60.0677 301.116 59.5043 301.116C58.9368 301.116 58.4659 301.267 58.0916 301.569C57.7214 301.87 57.4457 302.271 57.2646 302.77C57.0875 303.265 56.9989 303.808 56.9989 304.4C56.9989 304.996 57.0875 305.541 57.2646 306.036C57.4457 306.531 57.7214 306.927 58.0916 307.225C58.4659 307.523 58.9368 307.672 59.5043 307.672ZM74.7475 299.727V301.176H69.5075V299.727H74.7475ZM70.9442 309V298.653C70.9442 298.073 71.071 297.592 71.3246 297.21C71.5781 296.824 71.9142 296.536 72.3327 296.347C72.7513 296.153 73.2061 296.057 73.6971 296.057C74.0593 296.057 74.3692 296.087 74.6268 296.147C74.8844 296.204 75.0755 296.256 75.2003 296.304L74.7777 297.765C74.6932 297.741 74.5845 297.713 74.4517 297.681C74.3189 297.645 74.1579 297.626 73.9688 297.626C73.5301 297.626 73.2161 297.735 73.027 297.952C72.8419 298.17 72.7493 298.484 72.7493 298.894V309H70.9442ZM80.1506 309.187C79.2813 309.187 78.5226 308.988 77.8746 308.589C77.2267 308.191 76.7236 307.634 76.3654 306.917C76.0072 306.201 75.8281 305.364 75.8281 304.406C75.8281 303.444 76.0072 302.603 76.3654 301.882C76.7236 301.162 77.2267 300.603 77.8746 300.204C78.5226 299.806 79.2813 299.607 80.1506 299.607C81.0199 299.607 81.7785 299.806 82.4265 300.204C83.0745 300.603 83.5775 301.162 83.9357 301.882C84.2939 302.603 84.473 303.444 84.473 304.406C84.473 305.364 84.2939 306.201 83.9357 306.917C83.5775 307.634 83.0745 308.191 82.4265 308.589C81.7785 308.988 81.0199 309.187 80.1506 309.187ZM80.1566 307.672C80.7201 307.672 81.1869 307.523 81.5572 307.225C81.9274 306.927 82.2011 306.531 82.3782 306.036C82.5593 305.541 82.6499 304.996 82.6499 304.4C82.6499 303.808 82.5593 303.265 82.3782 302.77C82.2011 302.271 81.9274 301.87 81.5572 301.569C81.1869 301.267 80.7201 301.116 80.1566 301.116C79.5891 301.116 79.1183 301.267 78.744 301.569C78.3737 301.87 78.098 302.271 77.9169 302.77C77.7398 303.265 77.6513 303.808 77.6513 304.4C77.6513 304.996 77.7398 305.541 77.9169 306.036C78.098 306.531 78.3737 306.927 78.744 307.225C79.1183 307.523 79.5891 307.672 80.1566 307.672ZM86.4878 309V299.727H88.2325V301.2H88.3291C88.4981 300.701 88.796 300.309 89.2226 300.023C89.6532 299.733 90.1402 299.588 90.6835 299.588C90.7962 299.588 90.929 299.592 91.0819 299.6C91.2389 299.609 91.3617 299.619 91.4502 299.631V301.357C91.3778 301.337 91.249 301.315 91.0638 301.291C90.8787 301.263 90.6936 301.249 90.5084 301.249C90.0818 301.249 89.7015 301.339 89.3675 301.52C89.0374 301.697 88.7758 301.945 88.5827 302.263C88.3895 302.577 88.2929 302.935 88.2929 303.337V309H86.4878ZM94.8173 303.494V309H93.0123V299.727H94.7449V301.237H94.8596C95.0729 300.746 95.4069 300.351 95.8617 300.053C96.3205 299.755 96.898 299.607 97.5943 299.607C98.2261 299.607 98.7795 299.739 99.2544 300.005C99.7293 300.267 100.098 300.657 100.359 301.176C100.621 301.695 100.752 302.337 100.752 303.102V309H98.9466V303.319C98.9466 302.647 98.7715 302.122 98.4213 301.744C98.0712 301.361 97.5903 301.17 96.9785 301.17C96.56 301.17 96.1877 301.261 95.8617 301.442C95.5397 301.623 95.2842 301.888 95.095 302.239C94.9099 302.585 94.8173 303.003 94.8173 303.494ZM107.169 309.187C106.255 309.187 105.468 308.992 104.808 308.602C104.152 308.207 103.645 307.654 103.287 306.941C102.933 306.225 102.756 305.386 102.756 304.424C102.756 303.474 102.933 302.637 103.287 301.913C103.645 301.188 104.144 300.623 104.784 300.216C105.428 299.81 106.181 299.607 107.042 299.607C107.565 299.607 108.072 299.693 108.563 299.866C109.054 300.039 109.495 300.311 109.885 300.681C110.276 301.051 110.584 301.532 110.809 302.124C111.035 302.712 111.147 303.426 111.147 304.267V304.907H103.776V303.555H109.378C109.378 303.08 109.282 302.659 109.089 302.293C108.895 301.923 108.624 301.631 108.274 301.418C107.927 301.204 107.521 301.098 107.054 301.098C106.547 301.098 106.104 301.222 105.726 301.472C105.352 301.717 105.062 302.039 104.857 302.438C104.655 302.832 104.555 303.261 104.555 303.724V304.78C104.555 305.4 104.664 305.927 104.881 306.362C105.102 306.797 105.41 307.129 105.805 307.358C106.199 307.583 106.66 307.696 107.187 307.696C107.529 307.696 107.841 307.648 108.123 307.551C108.404 307.451 108.648 307.302 108.853 307.104C109.058 306.907 109.215 306.664 109.324 306.374L111.032 306.682C110.896 307.185 110.65 307.626 110.296 308.004C109.946 308.378 109.505 308.67 108.974 308.879C108.447 309.085 107.845 309.187 107.169 309.187ZM117.056 309.187C116.158 309.187 115.386 308.984 114.738 308.577C114.094 308.167 113.599 307.601 113.253 306.881C112.906 306.161 112.733 305.336 112.733 304.406C112.733 303.464 112.91 302.633 113.265 301.913C113.619 301.188 114.118 300.623 114.762 300.216C115.406 299.81 116.164 299.607 117.038 299.607C117.742 299.607 118.37 299.737 118.921 299.999C119.473 300.257 119.917 300.619 120.255 301.086C120.598 301.552 120.801 302.098 120.865 302.722H119.108C119.012 302.287 118.79 301.913 118.444 301.599C118.102 301.285 117.643 301.128 117.068 301.128C116.565 301.128 116.124 301.261 115.746 301.526C115.372 301.788 115.08 302.162 114.87 302.649C114.661 303.132 114.557 303.704 114.557 304.364C114.557 305.04 114.659 305.623 114.864 306.114C115.07 306.605 115.359 306.986 115.734 307.255C116.112 307.525 116.557 307.66 117.068 307.66C117.41 307.66 117.72 307.597 117.998 307.473C118.279 307.344 118.515 307.161 118.704 306.923C118.897 306.686 119.032 306.4 119.108 306.066H120.865C120.801 306.666 120.606 307.201 120.28 307.672C119.954 308.143 119.517 308.513 118.97 308.783C118.426 309.052 117.788 309.187 117.056 309.187ZM116.404 308.952H117.587L117.491 309.447C117.841 309.503 118.147 309.644 118.408 309.869C118.67 310.095 118.801 310.435 118.801 310.89C118.805 311.433 118.569 311.874 118.094 312.212C117.623 312.55 116.941 312.719 116.048 312.719L116.011 311.711C116.43 311.711 116.768 311.65 117.026 311.529C117.287 311.409 117.42 311.214 117.424 310.944C117.428 310.674 117.328 310.485 117.122 310.376C116.921 310.268 116.599 310.191 116.156 310.147L116.404 308.952ZM125.494 309.205C124.906 309.205 124.375 309.097 123.9 308.879C123.425 308.658 123.049 308.338 122.771 307.919C122.498 307.501 122.361 306.988 122.361 306.38C122.361 305.857 122.461 305.426 122.663 305.088C122.864 304.75 123.136 304.482 123.478 304.285C123.82 304.088 124.202 303.939 124.625 303.838C125.047 303.738 125.478 303.661 125.917 303.609C126.472 303.545 126.923 303.492 127.269 303.452C127.615 303.408 127.866 303.337 128.023 303.241C128.18 303.144 128.259 302.987 128.259 302.77V302.728C128.259 302.2 128.11 301.792 127.812 301.502C127.518 301.212 127.08 301.067 126.496 301.067C125.888 301.067 125.409 301.202 125.059 301.472C124.713 301.738 124.474 302.033 124.341 302.359L122.645 301.973C122.846 301.41 123.14 300.955 123.526 300.609C123.916 300.259 124.365 300.005 124.872 299.848C125.379 299.687 125.913 299.607 126.472 299.607C126.842 299.607 127.235 299.651 127.649 299.739C128.068 299.824 128.458 299.981 128.82 300.21C129.187 300.44 129.486 300.768 129.72 301.194C129.953 301.617 130.07 302.166 130.07 302.842V309H128.307V307.732H128.235C128.118 307.966 127.943 308.195 127.71 308.42C127.476 308.646 127.176 308.833 126.81 308.982C126.444 309.131 126.005 309.205 125.494 309.205ZM125.886 307.756C126.385 307.756 126.812 307.658 127.166 307.461C127.524 307.263 127.796 307.006 127.981 306.688C128.17 306.366 128.265 306.022 128.265 305.656V304.46C128.201 304.525 128.076 304.585 127.891 304.641C127.71 304.694 127.502 304.74 127.269 304.78C127.035 304.816 126.808 304.851 126.587 304.883C126.365 304.911 126.18 304.935 126.031 304.955C125.681 305 125.361 305.074 125.071 305.179C124.786 305.283 124.556 305.434 124.383 305.631C124.214 305.825 124.13 306.082 124.13 306.404C124.13 306.851 124.295 307.189 124.625 307.418C124.955 307.644 125.375 307.756 125.886 307.756ZM140.879 309.187C140.01 309.187 139.251 308.988 138.603 308.589C137.955 308.191 137.452 307.634 137.094 306.917C136.736 306.201 136.557 305.364 136.557 304.406C136.557 303.444 136.736 302.603 137.094 301.882C137.452 301.162 137.955 300.603 138.603 300.204C139.251 299.806 140.01 299.607 140.879 299.607C141.748 299.607 142.507 299.806 143.155 300.204C143.803 300.603 144.306 301.162 144.664 301.882C145.022 302.603 145.202 303.444 145.202 304.406C145.202 305.364 145.022 306.201 144.664 306.917C144.306 307.634 143.803 308.191 143.155 308.589C142.507 308.988 141.748 309.187 140.879 309.187ZM140.885 307.672C141.449 307.672 141.915 307.523 142.286 307.225C142.656 306.927 142.93 306.531 143.107 306.036C143.288 305.541 143.378 304.996 143.378 304.4C143.378 303.808 143.288 303.265 143.107 302.77C142.93 302.271 142.656 301.87 142.286 301.569C141.915 301.267 141.449 301.116 140.885 301.116C140.318 301.116 139.847 301.267 139.472 301.569C139.102 301.87 138.827 302.271 138.645 302.77C138.468 303.265 138.38 303.808 138.38 304.4C138.38 304.996 138.468 305.541 138.645 306.036C138.827 306.531 139.102 306.927 139.472 307.225C139.847 307.523 140.318 307.672 140.885 307.672ZM154.165 301.991L152.529 302.281C152.46 302.072 152.352 301.872 152.203 301.683C152.058 301.494 151.861 301.339 151.611 301.218C151.362 301.098 151.05 301.037 150.676 301.037C150.164 301.037 149.738 301.152 149.396 301.381C149.054 301.607 148.883 301.899 148.883 302.257C148.883 302.567 148.997 302.816 149.227 303.005C149.456 303.194 149.826 303.349 150.337 303.47L151.81 303.808C152.664 304.005 153.3 304.309 153.718 304.72C154.137 305.13 154.346 305.664 154.346 306.32C154.346 306.875 154.185 307.37 153.863 307.805C153.545 308.235 153.1 308.573 152.529 308.819C151.961 309.064 151.303 309.187 150.555 309.187C149.516 309.187 148.669 308.966 148.013 308.523C147.357 308.076 146.955 307.442 146.806 306.621L148.551 306.356C148.659 306.811 148.883 307.155 149.221 307.388C149.559 307.618 149.999 307.732 150.543 307.732C151.134 307.732 151.607 307.609 151.961 307.364C152.316 307.114 152.493 306.811 152.493 306.452C152.493 306.163 152.384 305.919 152.167 305.722C151.953 305.525 151.625 305.376 151.183 305.275L149.613 304.931C148.748 304.734 148.108 304.42 147.693 303.989C147.283 303.559 147.078 303.013 147.078 302.353C147.078 301.806 147.23 301.327 147.536 300.917C147.842 300.506 148.265 300.186 148.804 299.957C149.343 299.723 149.961 299.607 150.657 299.607C151.66 299.607 152.448 299.824 153.024 300.259C153.599 300.689 153.98 301.267 154.165 301.991ZM164.301 309.181C163.552 309.181 162.884 308.99 162.297 308.608C161.713 308.221 161.254 307.672 160.92 306.96C160.59 306.243 160.425 305.384 160.425 304.382C160.425 303.38 160.592 302.522 160.926 301.81C161.264 301.098 161.727 300.552 162.315 300.174C162.902 299.796 163.568 299.607 164.313 299.607C164.888 299.607 165.351 299.703 165.701 299.896C166.056 300.085 166.329 300.307 166.522 300.56C166.72 300.814 166.873 301.037 166.981 301.23H167.09V296.636H168.895V309H167.132V307.557H166.981C166.873 307.754 166.716 307.98 166.51 308.233C166.309 308.487 166.031 308.708 165.677 308.897C165.323 309.087 164.864 309.181 164.301 309.181ZM164.699 307.642C165.218 307.642 165.657 307.505 166.015 307.231C166.378 306.953 166.651 306.569 166.836 306.078C167.026 305.587 167.12 305.016 167.12 304.364C167.12 303.72 167.028 303.156 166.842 302.673C166.657 302.19 166.386 301.814 166.027 301.544C165.669 301.275 165.227 301.14 164.699 301.14C164.156 301.14 163.703 301.281 163.341 301.562C162.979 301.844 162.705 302.229 162.52 302.716C162.339 303.203 162.248 303.752 162.248 304.364C162.248 304.983 162.341 305.541 162.526 306.036C162.711 306.531 162.985 306.923 163.347 307.213C163.713 307.499 164.164 307.642 164.699 307.642ZM174.17 309.205C173.582 309.205 173.051 309.097 172.576 308.879C172.101 308.658 171.725 308.338 171.447 307.919C171.173 307.501 171.037 306.988 171.037 306.38C171.037 305.857 171.137 305.426 171.338 305.088C171.54 304.75 171.811 304.482 172.153 304.285C172.496 304.088 172.878 303.939 173.3 303.838C173.723 303.738 174.154 303.661 174.592 303.609C175.148 303.545 175.598 303.492 175.945 303.452C176.291 303.408 176.542 303.337 176.699 303.241C176.856 303.144 176.935 302.987 176.935 302.77V302.728C176.935 302.2 176.786 301.792 176.488 301.502C176.194 301.212 175.755 301.067 175.172 301.067C174.564 301.067 174.085 301.202 173.735 301.472C173.389 301.738 173.15 302.033 173.017 302.359L171.32 301.973C171.522 301.41 171.815 300.955 172.202 300.609C172.592 300.259 173.041 300.005 173.548 299.848C174.055 299.687 174.588 299.607 175.148 299.607C175.518 299.607 175.91 299.651 176.325 299.739C176.743 299.824 177.134 299.981 177.496 300.21C177.862 300.44 178.162 300.768 178.396 301.194C178.629 301.617 178.746 302.166 178.746 302.842V309H176.983V307.732H176.911C176.794 307.966 176.619 308.195 176.385 308.42C176.152 308.646 175.852 308.833 175.486 308.982C175.12 309.131 174.681 309.205 174.17 309.205ZM174.562 307.756C175.061 307.756 175.488 307.658 175.842 307.461C176.2 307.263 176.472 307.006 176.657 306.688C176.846 306.366 176.941 306.022 176.941 305.656V304.46C176.876 304.525 176.752 304.585 176.566 304.641C176.385 304.694 176.178 304.74 175.945 304.78C175.711 304.816 175.484 304.851 175.262 304.883C175.041 304.911 174.856 304.935 174.707 304.955C174.357 305 174.037 305.074 173.747 305.179C173.461 305.283 173.232 305.434 173.059 305.631C172.89 305.825 172.805 306.082 172.805 306.404C172.805 306.851 172.97 307.189 173.3 307.418C173.63 307.644 174.051 307.756 174.562 307.756ZM184.621 309.181C183.873 309.181 183.205 308.99 182.617 308.608C182.033 308.221 181.575 307.672 181.241 306.96C180.91 306.243 180.745 305.384 180.745 304.382C180.745 303.38 180.912 302.522 181.247 301.81C181.585 301.098 182.047 300.552 182.635 300.174C183.223 299.796 183.889 299.607 184.633 299.607C185.209 299.607 185.672 299.703 186.022 299.896C186.376 300.085 186.65 300.307 186.843 300.56C187.04 300.814 187.193 301.037 187.302 301.23H187.41V296.636H189.215V309H187.453V307.557H187.302C187.193 307.754 187.036 307.98 186.831 308.233C186.629 308.487 186.352 308.708 185.998 308.897C185.643 309.087 185.185 309.181 184.621 309.181ZM185.02 307.642C185.539 307.642 185.977 307.505 186.336 307.231C186.698 306.953 186.972 306.569 187.157 306.078C187.346 305.587 187.44 305.016 187.44 304.364C187.44 303.72 187.348 303.156 187.163 302.673C186.978 302.19 186.706 301.814 186.348 301.544C185.99 301.275 185.547 301.14 185.02 301.14C184.476 301.14 184.024 301.281 183.661 301.562C183.299 301.844 183.025 302.229 182.84 302.716C182.659 303.203 182.569 303.752 182.569 304.364C182.569 304.983 182.661 305.541 182.846 306.036C183.031 306.531 183.305 306.923 183.667 307.213C184.034 307.499 184.484 307.642 185.02 307.642ZM195.697 309.187C194.828 309.187 194.069 308.988 193.422 308.589C192.774 308.191 192.27 307.634 191.912 306.917C191.554 306.201 191.375 305.364 191.375 304.406C191.375 303.444 191.554 302.603 191.912 301.882C192.27 301.162 192.774 300.603 193.422 300.204C194.069 299.806 194.828 299.607 195.697 299.607C196.567 299.607 197.325 299.806 197.973 300.204C198.621 300.603 199.124 301.162 199.483 301.882C199.841 302.603 200.02 303.444 200.02 304.406C200.02 305.364 199.841 306.201 199.483 306.917C199.124 307.634 198.621 308.191 197.973 308.589C197.325 308.988 196.567 309.187 195.697 309.187ZM195.703 307.672C196.267 307.672 196.734 307.523 197.104 307.225C197.474 306.927 197.748 306.531 197.925 306.036C198.106 305.541 198.197 304.996 198.197 304.4C198.197 303.808 198.106 303.265 197.925 302.77C197.748 302.271 197.474 301.87 197.104 301.569C196.734 301.267 196.267 301.116 195.703 301.116C195.136 301.116 194.665 301.267 194.291 301.569C193.921 301.87 193.645 302.271 193.464 302.77C193.287 303.265 193.198 303.808 193.198 304.4C193.198 304.996 193.287 305.541 193.464 306.036C193.645 306.531 193.921 306.927 194.291 307.225C194.665 307.523 195.136 307.672 195.703 307.672ZM208.983 301.991L207.347 302.281C207.279 302.072 207.17 301.872 207.021 301.683C206.876 301.494 206.679 301.339 206.43 301.218C206.18 301.098 205.868 301.037 205.494 301.037C204.983 301.037 204.556 301.152 204.214 301.381C203.872 301.607 203.701 301.899 203.701 302.257C203.701 302.567 203.816 302.816 204.045 303.005C204.274 303.194 204.645 303.349 205.156 303.47L206.629 303.808C207.482 304.005 208.118 304.309 208.536 304.72C208.955 305.13 209.164 305.664 209.164 306.32C209.164 306.875 209.003 307.37 208.681 307.805C208.363 308.235 207.919 308.573 207.347 308.819C206.78 309.064 206.122 309.187 205.373 309.187C204.335 309.187 203.488 308.966 202.832 308.523C202.176 308.076 201.773 307.442 201.624 306.621L203.369 306.356C203.478 306.811 203.701 307.155 204.039 307.388C204.377 307.618 204.818 307.732 205.361 307.732C205.953 307.732 206.426 307.609 206.78 307.364C207.134 307.114 207.311 306.811 207.311 306.452C207.311 306.163 207.202 305.919 206.985 305.722C206.772 305.525 206.444 305.376 206.001 305.275L204.431 304.931C203.566 304.734 202.926 304.42 202.512 303.989C202.101 303.559 201.896 303.013 201.896 302.353C201.896 301.806 202.049 301.327 202.355 300.917C202.661 300.506 203.083 300.186 203.622 299.957C204.162 299.723 204.78 299.607 205.476 299.607C206.478 299.607 207.267 299.824 207.842 300.259C208.418 300.689 208.798 301.267 208.983 301.991ZM219.119 309.181C218.371 309.181 217.703 308.99 217.115 308.608C216.531 308.221 216.073 307.672 215.739 306.96C215.409 306.243 215.244 305.384 215.244 304.382C215.244 303.38 215.411 302.522 215.745 301.81C216.083 301.098 216.545 300.552 217.133 300.174C217.721 299.796 218.387 299.607 219.131 299.607C219.707 299.607 220.17 299.703 220.52 299.896C220.874 300.085 221.148 300.307 221.341 300.56C221.538 300.814 221.691 301.037 221.8 301.23H221.908V296.636H223.713V309H221.951V307.557H221.8C221.691 307.754 221.534 307.98 221.329 308.233C221.128 308.487 220.85 308.708 220.496 308.897C220.141 309.087 219.683 309.181 219.119 309.181ZM219.518 307.642C220.037 307.642 220.476 307.505 220.834 307.231C221.196 306.953 221.47 306.569 221.655 306.078C221.844 305.587 221.938 305.016 221.938 304.364C221.938 303.72 221.846 303.156 221.661 302.673C221.476 302.19 221.204 301.814 220.846 301.544C220.488 301.275 220.045 301.14 219.518 301.14C218.974 301.14 218.522 301.281 218.159 301.562C217.797 301.844 217.523 302.229 217.338 302.716C217.157 303.203 217.067 303.752 217.067 304.364C217.067 304.983 217.159 305.541 217.344 306.036C217.53 306.531 217.803 306.923 218.165 307.213C218.532 307.499 218.982 307.642 219.518 307.642ZM230.195 309.187C229.326 309.187 228.568 308.988 227.92 308.589C227.272 308.191 226.769 307.634 226.41 306.917C226.052 306.201 225.873 305.364 225.873 304.406C225.873 303.444 226.052 302.603 226.41 301.882C226.769 301.162 227.272 300.603 227.92 300.204C228.568 299.806 229.326 299.607 230.195 299.607C231.065 299.607 231.823 299.806 232.471 300.204C233.119 300.603 233.622 301.162 233.981 301.882C234.339 302.603 234.518 303.444 234.518 304.406C234.518 305.364 234.339 306.201 233.981 306.917C233.622 307.634 233.119 308.191 232.471 308.589C231.823 308.988 231.065 309.187 230.195 309.187ZM230.202 307.672C230.765 307.672 231.232 307.523 231.602 307.225C231.972 306.927 232.246 306.531 232.423 306.036C232.604 305.541 232.695 304.996 232.695 304.4C232.695 303.808 232.604 303.265 232.423 302.77C232.246 302.271 231.972 301.87 231.602 301.569C231.232 301.267 230.765 301.116 230.202 301.116C229.634 301.116 229.163 301.267 228.789 301.569C228.419 301.87 228.143 302.271 227.962 302.77C227.785 303.265 227.696 303.808 227.696 304.4C227.696 304.996 227.785 305.541 227.962 306.036C228.143 306.531 228.419 306.927 228.789 307.225C229.163 307.523 229.634 307.672 230.202 307.672ZM247.98 301.991L246.344 302.281C246.276 302.072 246.167 301.872 246.018 301.683C245.873 301.494 245.676 301.339 245.427 301.218C245.177 301.098 244.865 301.037 244.491 301.037C243.98 301.037 243.553 301.152 243.211 301.381C242.869 301.607 242.698 301.899 242.698 302.257C242.698 302.567 242.813 302.816 243.042 303.005C243.271 303.194 243.642 303.349 244.153 303.47L245.626 303.808C246.479 304.005 247.115 304.309 247.534 304.72C247.952 305.13 248.161 305.664 248.161 306.32C248.161 306.875 248 307.37 247.678 307.805C247.36 308.235 246.916 308.573 246.344 308.819C245.777 309.064 245.119 309.187 244.37 309.187C243.332 309.187 242.485 308.966 241.829 308.523C241.173 308.076 240.77 307.442 240.621 306.621L242.366 306.356C242.475 306.811 242.698 307.155 243.036 307.388C243.374 307.618 243.815 307.732 244.358 307.732C244.95 307.732 245.423 307.609 245.777 307.364C246.131 307.114 246.308 306.811 246.308 306.452C246.308 306.163 246.199 305.919 245.982 305.722C245.769 305.525 245.441 305.376 244.998 305.275L243.428 304.931C242.563 304.734 241.923 304.42 241.509 303.989C241.098 303.559 240.893 303.013 240.893 302.353C240.893 301.806 241.046 301.327 241.352 300.917C241.658 300.506 242.08 300.186 242.619 299.957C243.159 299.723 243.777 299.607 244.473 299.607C245.475 299.607 246.264 299.824 246.839 300.259C247.415 300.689 247.795 301.267 247.98 301.991ZM254.142 309.187C253.229 309.187 252.442 308.992 251.782 308.602C251.126 308.207 250.619 307.654 250.261 306.941C249.907 306.225 249.729 305.386 249.729 304.424C249.729 303.474 249.907 302.637 250.261 301.913C250.619 301.188 251.118 300.623 251.758 300.216C252.402 299.81 253.154 299.607 254.016 299.607C254.539 299.607 255.046 299.693 255.537 299.866C256.028 300.039 256.469 300.311 256.859 300.681C257.249 301.051 257.557 301.532 257.783 302.124C258.008 302.712 258.121 303.426 258.121 304.267V304.907H250.75V303.555H256.352C256.352 303.08 256.255 302.659 256.062 302.293C255.869 301.923 255.597 301.631 255.247 301.418C254.901 301.204 254.495 301.098 254.028 301.098C253.521 301.098 253.078 301.222 252.7 301.472C252.325 301.717 252.036 302.039 251.83 302.438C251.629 302.832 251.528 303.261 251.528 303.724V304.78C251.528 305.4 251.637 305.927 251.854 306.362C252.076 306.797 252.384 307.129 252.778 307.358C253.173 307.583 253.633 307.696 254.161 307.696C254.503 307.696 254.815 307.648 255.096 307.551C255.378 307.451 255.622 307.302 255.827 307.104C256.032 306.907 256.189 306.664 256.298 306.374L258.006 306.682C257.869 307.185 257.624 307.626 257.27 308.004C256.919 308.378 256.479 308.67 255.948 308.879C255.42 309.085 254.819 309.187 254.142 309.187ZM265.998 305.154V299.727H267.809V309H266.034V307.394H265.937C265.724 307.889 265.382 308.302 264.911 308.632C264.444 308.958 263.862 309.121 263.166 309.121C262.571 309.121 262.043 308.99 261.585 308.728C261.13 308.463 260.772 308.07 260.51 307.551C260.252 307.032 260.124 306.39 260.124 305.625V299.727H261.929V305.408C261.929 306.04 262.104 306.543 262.454 306.917C262.804 307.292 263.259 307.479 263.818 307.479C264.156 307.479 264.492 307.394 264.826 307.225C265.164 307.056 265.444 306.801 265.665 306.458C265.891 306.116 266.002 305.682 265.998 305.154ZM37.1193 330.187C36.2218 330.187 35.4491 329.984 34.8011 329.577C34.1572 329.167 33.6622 328.601 33.3161 327.881C32.9699 327.161 32.7969 326.336 32.7969 325.406C32.7969 324.464 32.974 323.633 33.3281 322.913C33.6823 322.188 34.1813 321.623 34.8253 321.216C35.4692 320.81 36.2279 320.607 37.1012 320.607C37.8055 320.607 38.4334 320.737 38.9847 320.999C39.5361 321.257 39.9808 321.619 40.3189 322.086C40.661 322.552 40.8642 323.098 40.9286 323.722H39.1719C39.0753 323.287 38.8539 322.913 38.5078 322.599C38.1657 322.285 37.7069 322.128 37.1314 322.128C36.6283 322.128 36.1876 322.261 35.8093 322.526C35.435 322.788 35.1432 323.162 34.9339 323.649C34.7247 324.132 34.62 324.704 34.62 325.364C34.62 326.04 34.7227 326.623 34.9279 327.114C35.1332 327.605 35.4229 327.986 35.7972 328.255C36.1755 328.525 36.6203 328.66 37.1314 328.66C37.4735 328.66 37.7834 328.597 38.0611 328.473C38.3428 328.344 38.5782 328.161 38.7674 327.923C38.9606 327.686 39.0954 327.4 39.1719 327.066H40.9286C40.8642 327.666 40.669 328.201 40.343 328.672C40.017 329.143 39.5804 329.513 39.033 329.783C38.4897 330.052 37.8518 330.187 37.1193 330.187ZM46.7648 330.187C45.8955 330.187 45.1369 329.988 44.4889 329.589C43.8409 329.191 43.3379 328.634 42.9797 327.917C42.6215 327.201 42.4424 326.364 42.4424 325.406C42.4424 324.444 42.6215 323.603 42.9797 322.882C43.3379 322.162 43.8409 321.603 44.4889 321.204C45.1369 320.806 45.8955 320.607 46.7648 320.607C47.6341 320.607 48.3928 320.806 49.0407 321.204C49.6887 321.603 50.1918 322.162 50.55 322.882C50.9082 323.603 51.0873 324.444 51.0873 325.406C51.0873 326.364 50.9082 327.201 50.55 327.917C50.1918 328.634 49.6887 329.191 49.0407 329.589C48.3928 329.988 47.6341 330.187 46.7648 330.187ZM46.7709 328.672C47.3343 328.672 47.8012 328.523 48.1714 328.225C48.5417 327.927 48.8154 327.531 48.9925 327.036C49.1736 326.541 49.2641 325.996 49.2641 325.4C49.2641 324.808 49.1736 324.265 48.9925 323.77C48.8154 323.271 48.5417 322.87 48.1714 322.569C47.8012 322.267 47.3343 322.116 46.7709 322.116C46.2034 322.116 45.7325 322.267 45.3582 322.569C44.988 322.87 44.7123 323.271 44.5312 323.77C44.3541 324.265 44.2655 324.808 44.2655 325.4C44.2655 325.996 44.3541 326.541 44.5312 327.036C44.7123 327.531 44.988 327.927 45.3582 328.225C45.7325 328.523 46.2034 328.672 46.7709 328.672ZM54.9071 324.494V330H53.1021V320.727H54.8347V322.237H54.9494C55.1627 321.746 55.4967 321.351 55.9515 321.053C56.4103 320.755 56.9879 320.607 57.6841 320.607C58.316 320.607 58.8694 320.739 59.3443 321.005C59.8192 321.267 60.1874 321.657 60.449 322.176C60.7106 322.695 60.8414 323.337 60.8414 324.102V330H59.0364V324.319C59.0364 323.647 58.8613 323.122 58.5112 322.744C58.161 322.361 57.6801 322.17 57.0684 322.17C56.6498 322.17 56.2775 322.261 55.9515 322.442C55.6296 322.623 55.374 322.888 55.1848 323.239C54.9997 323.585 54.9071 324.003 54.9071 324.494ZM67.5907 320.727V322.176H62.5257V320.727H67.5907ZM63.8841 318.506H65.6891V327.277C65.6891 327.627 65.7414 327.891 65.8461 328.068C65.9507 328.241 66.0855 328.36 66.2505 328.424C66.4196 328.485 66.6027 328.515 66.7999 328.515C66.9448 328.515 67.0716 328.505 67.1802 328.485C67.2889 328.465 67.3734 328.449 67.4338 328.436L67.7598 329.928C67.6551 329.968 67.5062 330.008 67.313 330.048C67.1199 330.093 66.8784 330.117 66.5886 330.121C66.1137 330.129 65.671 330.044 65.2605 329.867C64.85 329.69 64.5179 329.416 64.2644 329.046C64.0108 328.676 63.8841 328.211 63.8841 327.652V318.506ZM69.5874 330V320.727H71.3321V322.2H71.4287C71.5977 321.701 71.8956 321.309 72.3222 321.023C72.7528 320.733 73.2398 320.588 73.7831 320.588C73.8958 320.588 74.0286 320.592 74.1816 320.6C74.3385 320.609 74.4613 320.619 74.5498 320.631V322.357C74.4774 322.337 74.3486 322.315 74.1634 322.291C73.9783 322.263 73.7932 322.249 73.608 322.249C73.1814 322.249 72.8011 322.339 72.4671 322.52C72.137 322.697 71.8754 322.945 71.6823 323.263C71.4891 323.577 71.3925 323.935 71.3925 324.337V330H69.5874ZM78.7274 330.205C78.1398 330.205 77.6085 330.097 77.1336 329.879C76.6587 329.658 76.2824 329.338 76.0047 328.919C75.731 328.501 75.5942 327.988 75.5942 327.38C75.5942 326.857 75.6948 326.426 75.896 326.088C76.0973 325.75 76.3689 325.482 76.711 325.285C77.0531 325.088 77.4355 324.939 77.858 324.838C78.2806 324.738 78.7113 324.661 79.1499 324.609C79.7053 324.545 80.1561 324.492 80.5022 324.452C80.8483 324.408 81.0999 324.337 81.2568 324.241C81.4138 324.144 81.4923 323.987 81.4923 323.77V323.728C81.4923 323.2 81.3434 322.792 81.0455 322.502C80.7517 322.212 80.3131 322.067 79.7295 322.067C79.1218 322.067 78.6428 322.202 78.2927 322.472C77.9466 322.738 77.7071 323.033 77.5743 323.359L75.8779 322.973C76.0792 322.41 76.373 321.955 76.7593 321.609C77.1497 321.259 77.5985 321.005 78.1056 320.848C78.6127 320.687 79.1459 320.607 79.7053 320.607C80.0756 320.607 80.468 320.651 80.8825 320.739C81.3011 320.824 81.6915 320.981 82.0537 321.21C82.42 321.44 82.7198 321.768 82.9532 322.194C83.1866 322.617 83.3034 323.166 83.3034 323.842V330H81.5406V328.732H81.4681C81.3514 328.966 81.1763 329.195 80.9429 329.42C80.7095 329.646 80.4097 329.833 80.0434 329.982C79.6772 330.131 79.2385 330.205 78.7274 330.205ZM79.1198 328.756C79.6188 328.756 80.0454 328.658 80.3996 328.461C80.7578 328.263 81.0294 328.006 81.2146 327.688C81.4037 327.366 81.4983 327.022 81.4983 326.656V325.46C81.4339 325.525 81.3092 325.585 81.124 325.641C80.9429 325.694 80.7356 325.74 80.5022 325.78C80.2688 325.816 80.0414 325.851 79.82 325.883C79.5987 325.911 79.4136 325.935 79.2646 325.955C78.9145 326 78.5945 326.074 78.3048 326.179C78.019 326.283 77.7896 326.434 77.6166 326.631C77.4475 326.825 77.363 327.082 77.363 327.404C77.363 327.851 77.528 328.189 77.858 328.418C78.1881 328.644 78.6086 328.756 79.1198 328.756ZM90.036 320.727V322.176H84.9711V320.727H90.036ZM86.3294 318.506H88.1344V327.277C88.1344 327.627 88.1867 327.891 88.2914 328.068C88.396 328.241 88.5308 328.36 88.6958 328.424C88.8649 328.485 89.048 328.515 89.2452 328.515C89.3901 328.515 89.5169 328.505 89.6255 328.485C89.7342 328.465 89.8187 328.449 89.8791 328.436L90.2051 329.928C90.1004 329.968 89.9515 330.008 89.7583 330.048C89.5652 330.093 89.3237 330.117 89.0339 330.121C88.559 330.129 88.1163 330.044 87.7058 329.867C87.2953 329.69 86.9632 329.416 86.7097 329.046C86.4561 328.676 86.3294 328.211 86.3294 327.652V318.506ZM95.839 330.187C94.9697 330.187 94.2111 329.988 93.5631 329.589C92.9152 329.191 92.4121 328.634 92.0539 327.917C91.6957 327.201 91.5166 326.364 91.5166 325.406C91.5166 324.444 91.6957 323.603 92.0539 322.882C92.4121 322.162 92.9152 321.603 93.5631 321.204C94.2111 320.806 94.9697 320.607 95.839 320.607C96.7084 320.607 97.467 320.806 98.115 321.204C98.7629 321.603 99.266 322.162 99.6242 322.882C99.9824 323.603 100.161 324.444 100.161 325.406C100.161 326.364 99.9824 327.201 99.6242 327.917C99.266 328.634 98.7629 329.191 98.115 329.589C97.467 329.988 96.7084 330.187 95.839 330.187ZM95.8451 328.672C96.4085 328.672 96.8754 328.523 97.2456 328.225C97.6159 327.927 97.8896 327.531 98.0667 327.036C98.2478 326.541 98.3383 325.996 98.3383 325.4C98.3383 324.808 98.2478 324.265 98.0667 323.77C97.8896 323.271 97.6159 322.87 97.2456 322.569C96.8754 322.267 96.4085 322.116 95.8451 322.116C95.2776 322.116 94.8067 322.267 94.4324 322.569C94.0622 322.87 93.7865 323.271 93.6054 323.77C93.4283 324.265 93.3398 324.808 93.3398 325.4C93.3398 325.996 93.4283 326.541 93.6054 327.036C93.7865 327.531 94.0622 327.927 94.4324 328.225C94.8067 328.523 95.2776 328.672 95.8451 328.672ZM110.147 330.181C109.398 330.181 108.73 329.99 108.142 329.608C107.559 329.221 107.1 328.672 106.766 327.96C106.436 327.243 106.271 326.384 106.271 325.382C106.271 324.38 106.438 323.522 106.772 322.81C107.11 322.098 107.573 321.552 108.16 321.174C108.748 320.796 109.414 320.607 110.159 320.607C110.734 320.607 111.197 320.703 111.547 320.896C111.901 321.085 112.175 321.307 112.368 321.56C112.565 321.814 112.718 322.037 112.827 322.23H112.936V317.636H114.741V330H112.978V328.557H112.827C112.718 328.754 112.561 328.98 112.356 329.233C112.155 329.487 111.877 329.708 111.523 329.897C111.169 330.087 110.71 330.181 110.147 330.181ZM110.545 328.642C111.064 328.642 111.503 328.505 111.861 328.231C112.223 327.953 112.497 327.569 112.682 327.078C112.871 326.587 112.966 326.016 112.966 325.364C112.966 324.72 112.873 324.156 112.688 323.673C112.503 323.19 112.231 322.814 111.873 322.544C111.515 322.275 111.072 322.14 110.545 322.14C110.002 322.14 109.549 322.281 109.187 322.562C108.824 322.844 108.551 323.229 108.366 323.716C108.185 324.203 108.094 324.752 108.094 325.364C108.094 325.983 108.187 326.541 108.372 327.036C108.557 327.531 108.831 327.923 109.193 328.213C109.559 328.499 110.01 328.642 110.545 328.642ZM121.313 330.187C120.4 330.187 119.613 329.992 118.953 329.602C118.297 329.207 117.79 328.654 117.432 327.941C117.077 327.225 116.9 326.386 116.9 325.424C116.9 324.474 117.077 323.637 117.432 322.913C117.79 322.188 118.289 321.623 118.929 321.216C119.573 320.81 120.325 320.607 121.187 320.607C121.71 320.607 122.217 320.693 122.708 320.866C123.199 321.039 123.64 321.311 124.03 321.681C124.42 322.051 124.728 322.532 124.954 323.124C125.179 323.712 125.292 324.426 125.292 325.267V325.907H117.921V324.555H123.523C123.523 324.08 123.426 323.659 123.233 323.293C123.04 322.923 122.768 322.631 122.418 322.418C122.072 322.204 121.666 322.098 121.199 322.098C120.692 322.098 120.249 322.222 119.871 322.472C119.496 322.717 119.206 323.039 119.001 323.438C118.8 323.832 118.699 324.261 118.699 324.724V325.78C118.699 326.4 118.808 326.927 119.025 327.362C119.247 327.797 119.555 328.129 119.949 328.358C120.343 328.583 120.804 328.696 121.331 328.696C121.674 328.696 121.985 328.648 122.267 328.551C122.549 328.451 122.792 328.302 122.998 328.104C123.203 327.907 123.36 327.664 123.469 327.374L125.177 327.682C125.04 328.185 124.795 328.626 124.441 329.004C124.09 329.378 123.65 329.67 123.118 329.879C122.591 330.085 121.99 330.187 121.313 330.187ZM136.206 320.727V322.176H130.966V320.727H136.206ZM132.403 330V319.653C132.403 319.073 132.53 318.592 132.784 318.21C133.037 317.824 133.373 317.536 133.792 317.347C134.21 317.153 134.665 317.057 135.156 317.057C135.518 317.057 135.828 317.087 136.086 317.147C136.343 317.204 136.535 317.256 136.659 317.304L136.237 318.765C136.152 318.741 136.044 318.713 135.911 318.681C135.778 318.645 135.617 318.626 135.428 318.626C134.989 318.626 134.675 318.735 134.486 318.952C134.301 319.17 134.208 319.484 134.208 319.894V330H132.403ZM138.069 330V320.727H139.874V330H138.069ZM138.98 319.297C138.667 319.297 138.397 319.192 138.172 318.983C137.95 318.769 137.839 318.516 137.839 318.222C137.839 317.924 137.95 317.671 138.172 317.461C138.397 317.248 138.667 317.141 138.98 317.141C139.294 317.141 139.562 317.248 139.783 317.461C140.009 317.671 140.121 317.924 140.121 318.222C140.121 318.516 140.009 318.769 139.783 318.983C139.562 319.192 139.294 319.297 138.98 319.297ZM144.107 324.494V330H142.302V320.727H144.035V322.237H144.15C144.363 321.746 144.697 321.351 145.152 321.053C145.611 320.755 146.188 320.607 146.884 320.607C147.516 320.607 148.07 320.739 148.544 321.005C149.019 321.267 149.388 321.657 149.649 322.176C149.911 322.695 150.042 323.337 150.042 324.102V330H148.237V324.319C148.237 323.647 148.062 323.122 147.711 322.744C147.361 322.361 146.88 322.17 146.269 322.17C145.85 322.17 145.478 322.261 145.152 322.442C144.83 322.623 144.574 322.888 144.385 323.239C144.2 323.585 144.107 324.003 144.107 324.494ZM155.161 330.205C154.573 330.205 154.042 330.097 153.567 329.879C153.092 329.658 152.716 329.338 152.438 328.919C152.165 328.501 152.028 327.988 152.028 327.38C152.028 326.857 152.128 326.426 152.33 326.088C152.531 325.75 152.803 325.482 153.145 325.285C153.487 325.088 153.869 324.939 154.292 324.838C154.714 324.738 155.145 324.661 155.584 324.609C156.139 324.545 156.59 324.492 156.936 324.452C157.282 324.408 157.533 324.337 157.69 324.241C157.847 324.144 157.926 323.987 157.926 323.77V323.728C157.926 323.2 157.777 322.792 157.479 322.502C157.185 322.212 156.747 322.067 156.163 322.067C155.555 322.067 155.076 322.202 154.726 322.472C154.38 322.738 154.141 323.033 154.008 323.359L152.312 322.973C152.513 322.41 152.807 321.955 153.193 321.609C153.583 321.259 154.032 321.005 154.539 320.848C155.046 320.687 155.58 320.607 156.139 320.607C156.509 320.607 156.902 320.651 157.316 320.739C157.735 320.824 158.125 320.981 158.487 321.21C158.854 321.44 159.153 321.768 159.387 322.194C159.62 322.617 159.737 323.166 159.737 323.842V330H157.974V328.732H157.902C157.785 328.966 157.61 329.195 157.377 329.42C157.143 329.646 156.843 329.833 156.477 329.982C156.111 330.131 155.672 330.205 155.161 330.205ZM155.553 328.756C156.052 328.756 156.479 328.658 156.833 328.461C157.191 328.263 157.463 328.006 157.648 327.688C157.837 327.366 157.932 327.022 157.932 326.656V325.46C157.868 325.525 157.743 325.585 157.558 325.641C157.377 325.694 157.169 325.74 156.936 325.78C156.702 325.816 156.475 325.851 156.254 325.883C156.032 325.911 155.847 325.935 155.698 325.955C155.348 326 155.028 326.074 154.738 326.179C154.453 326.283 154.223 326.434 154.05 326.631C153.881 326.825 153.797 327.082 153.797 327.404C153.797 327.851 153.962 328.189 154.292 328.418C154.622 328.644 155.042 328.756 155.553 328.756ZM163.946 324.494V330H162.141V320.727H163.874V322.237H163.988C164.202 321.746 164.536 321.351 164.991 321.053C165.449 320.755 166.027 320.607 166.723 320.607C167.355 320.607 167.908 320.739 168.383 321.005C168.858 321.267 169.227 321.657 169.488 322.176C169.75 322.695 169.881 323.337 169.881 324.102V330H168.075V324.319C168.075 323.647 167.9 323.122 167.55 322.744C167.2 322.361 166.719 322.17 166.107 322.17C165.689 322.17 165.317 322.261 164.991 322.442C164.669 322.623 164.413 322.888 164.224 323.239C164.039 323.585 163.946 324.003 163.946 324.494ZM176.207 330.187C175.31 330.187 174.537 329.984 173.889 329.577C173.245 329.167 172.75 328.601 172.404 327.881C172.058 327.161 171.885 326.336 171.885 325.406C171.885 324.464 172.062 323.633 172.416 322.913C172.77 322.188 173.269 321.623 173.913 321.216C174.557 320.81 175.316 320.607 176.189 320.607C176.893 320.607 177.521 320.737 178.073 320.999C178.624 321.257 179.069 321.619 179.407 322.086C179.749 322.552 179.952 323.098 180.017 323.722H178.26C178.163 323.287 177.942 322.913 177.596 322.599C177.254 322.285 176.795 322.128 176.219 322.128C175.716 322.128 175.276 322.261 174.897 322.526C174.523 322.788 174.231 323.162 174.022 323.649C173.813 324.132 173.708 324.704 173.708 325.364C173.708 326.04 173.811 326.623 174.016 327.114C174.221 327.605 174.511 327.986 174.885 328.255C175.263 328.525 175.708 328.66 176.219 328.66C176.561 328.66 176.871 328.597 177.149 328.473C177.431 328.344 177.666 328.161 177.855 327.923C178.048 327.686 178.183 327.4 178.26 327.066H180.017C179.952 327.666 179.757 328.201 179.431 328.672C179.105 329.143 178.668 329.513 178.121 329.783C177.578 330.052 176.94 330.187 176.207 330.187ZM181.947 330V320.727H183.752V330H181.947ZM182.858 319.297C182.544 319.297 182.275 319.192 182.049 318.983C181.828 318.769 181.717 318.516 181.717 318.222C181.717 317.924 181.828 317.671 182.049 317.461C182.275 317.248 182.544 317.141 182.858 317.141C183.172 317.141 183.44 317.248 183.661 317.461C183.887 317.671 183.999 317.924 183.999 318.222C183.999 318.516 183.887 318.769 183.661 318.983C183.44 319.192 183.172 319.297 182.858 319.297ZM188.879 330.205C188.291 330.205 187.76 330.097 187.285 329.879C186.81 329.658 186.434 329.338 186.156 328.919C185.882 328.501 185.746 327.988 185.746 327.38C185.746 326.857 185.846 326.426 186.047 326.088C186.249 325.75 186.52 325.482 186.862 325.285C187.204 325.088 187.587 324.939 188.009 324.838C188.432 324.738 188.863 324.661 189.301 324.609C189.857 324.545 190.307 324.492 190.654 324.452C191 324.408 191.251 324.337 191.408 324.241C191.565 324.144 191.644 323.987 191.644 323.77V323.728C191.644 323.2 191.495 322.792 191.197 322.502C190.903 322.212 190.464 322.067 189.881 322.067C189.273 322.067 188.794 322.202 188.444 322.472C188.098 322.738 187.858 323.033 187.726 323.359L186.029 322.973C186.231 322.41 186.524 321.955 186.911 321.609C187.301 321.259 187.75 321.005 188.257 320.848C188.764 320.687 189.297 320.607 189.857 320.607C190.227 320.607 190.619 320.651 191.034 320.739C191.452 320.824 191.843 320.981 192.205 321.21C192.571 321.44 192.871 321.768 193.105 322.194C193.338 322.617 193.455 323.166 193.455 323.842V330H191.692V328.732H191.619C191.503 328.966 191.328 329.195 191.094 329.42C190.861 329.646 190.561 329.833 190.195 329.982C189.829 330.131 189.39 330.205 188.879 330.205ZM189.271 328.756C189.77 328.756 190.197 328.658 190.551 328.461C190.909 328.263 191.181 328.006 191.366 327.688C191.555 327.366 191.65 327.022 191.65 326.656V325.46C191.585 325.525 191.461 325.585 191.275 325.641C191.094 325.694 190.887 325.74 190.654 325.78C190.42 325.816 190.193 325.851 189.971 325.883C189.75 325.911 189.565 325.935 189.416 325.955C189.066 326 188.746 326.074 188.456 326.179C188.17 326.283 187.941 326.434 187.768 326.631C187.599 326.825 187.514 327.082 187.514 327.404C187.514 327.851 187.679 328.189 188.009 328.418C188.339 328.644 188.76 328.756 189.271 328.756ZM195.859 330V320.727H197.592V322.237H197.706C197.899 321.725 198.215 321.327 198.654 321.041C199.093 320.751 199.618 320.607 200.23 320.607C200.849 320.607 201.369 320.751 201.787 321.041C202.21 321.331 202.522 321.729 202.723 322.237H202.82C203.041 321.741 203.393 321.347 203.876 321.053C204.359 320.755 204.934 320.607 205.603 320.607C206.444 320.607 207.13 320.87 207.661 321.397C208.196 321.925 208.464 322.719 208.464 323.782V330H206.659V323.951C206.659 323.323 206.488 322.868 206.146 322.587C205.804 322.305 205.395 322.164 204.92 322.164C204.333 322.164 203.876 322.345 203.55 322.707C203.224 323.066 203.061 323.526 203.061 324.09V330H201.262V323.836C201.262 323.333 201.105 322.929 200.791 322.623C200.477 322.317 200.069 322.164 199.566 322.164C199.224 322.164 198.908 322.255 198.618 322.436C198.332 322.613 198.101 322.86 197.924 323.178C197.751 323.496 197.664 323.864 197.664 324.283V330H195.859ZM214.88 330.187C213.966 330.187 213.179 329.992 212.519 329.602C211.863 329.207 211.356 328.654 210.998 327.941C210.644 327.225 210.467 326.386 210.467 325.424C210.467 324.474 210.644 323.637 210.998 322.913C211.356 322.188 211.855 321.623 212.495 321.216C213.139 320.81 213.892 320.607 214.753 320.607C215.276 320.607 215.783 320.693 216.274 320.866C216.765 321.039 217.206 321.311 217.596 321.681C217.987 322.051 218.295 322.532 218.52 323.124C218.745 323.712 218.858 324.426 218.858 325.267V325.907H211.487V324.555H217.089C217.089 324.08 216.993 323.659 216.8 323.293C216.606 322.923 216.335 322.631 215.985 322.418C215.638 322.204 215.232 322.098 214.765 322.098C214.258 322.098 213.815 322.222 213.437 322.472C213.063 322.717 212.773 323.039 212.568 323.438C212.366 323.832 212.266 324.261 212.266 324.724V325.78C212.266 326.4 212.374 326.927 212.592 327.362C212.813 327.797 213.121 328.129 213.515 328.358C213.91 328.583 214.371 328.696 214.898 328.696C215.24 328.696 215.552 328.648 215.834 328.551C216.115 328.451 216.359 328.302 216.564 328.104C216.769 327.907 216.926 327.664 217.035 327.374L218.743 327.682C218.607 328.185 218.361 328.626 218.007 329.004C217.657 329.378 217.216 329.67 216.685 329.879C216.158 330.085 215.556 330.187 214.88 330.187ZM222.666 324.494V330H220.861V320.727H222.593V322.237H222.708C222.921 321.746 223.256 321.351 223.71 321.053C224.169 320.755 224.747 320.607 225.443 320.607C226.075 320.607 226.628 320.739 227.103 321.005C227.578 321.267 227.946 321.657 228.208 322.176C228.469 322.695 228.6 323.337 228.6 324.102V330H226.795V324.319C226.795 323.647 226.62 323.122 226.27 322.744C225.92 322.361 225.439 322.17 224.827 322.17C224.409 322.17 224.036 322.261 223.71 322.442C223.388 322.623 223.133 322.888 222.944 323.239C222.758 323.585 222.666 324.003 222.666 324.494ZM235.35 320.727V322.176H230.285V320.727H235.35ZM231.643 318.506H233.448V327.277C233.448 327.627 233.5 327.891 233.605 328.068C233.709 328.241 233.844 328.36 234.009 328.424C234.178 328.485 234.361 328.515 234.559 328.515C234.704 328.515 234.83 328.505 234.939 328.485C235.048 328.465 235.132 328.449 235.193 328.436L235.519 329.928C235.414 329.968 235.265 330.008 235.072 330.048C234.879 330.093 234.637 330.117 234.347 330.121C233.872 330.129 233.43 330.044 233.019 329.867C232.609 329.69 232.277 329.416 232.023 329.046C231.77 328.676 231.643 328.211 231.643 327.652V318.506ZM241.153 330.187C240.283 330.187 239.525 329.988 238.877 329.589C238.229 329.191 237.726 328.634 237.367 327.917C237.009 327.201 236.83 326.364 236.83 325.406C236.83 324.444 237.009 323.603 237.367 322.882C237.726 322.162 238.229 321.603 238.877 321.204C239.525 320.806 240.283 320.607 241.153 320.607C242.022 320.607 242.78 320.806 243.428 321.204C244.076 321.603 244.579 322.162 244.938 322.882C245.296 323.603 245.475 324.444 245.475 325.406C245.475 326.364 245.296 327.201 244.938 327.917C244.579 328.634 244.076 329.191 243.428 329.589C242.78 329.988 242.022 330.187 241.153 330.187ZM241.159 328.672C241.722 328.672 242.189 328.523 242.559 328.225C242.929 327.927 243.203 327.531 243.38 327.036C243.561 326.541 243.652 325.996 243.652 325.4C243.652 324.808 243.561 324.265 243.38 323.77C243.203 323.271 242.929 322.87 242.559 322.569C242.189 322.267 241.722 322.116 241.159 322.116C240.591 322.116 240.12 322.267 239.746 322.569C239.376 322.87 239.1 323.271 238.919 323.77C238.742 324.265 238.653 324.808 238.653 325.4C238.653 325.996 238.742 326.541 238.919 327.036C239.1 327.531 239.376 327.927 239.746 328.225C240.12 328.523 240.591 328.672 241.159 328.672Z" fill="white"/>
</svg>
