<svg width="32" height="32" viewBox="0 0 32 32" fill="none" xmlns="http://www.w3.org/2000/svg">
<rect width="32" height="32" rx="16" fill="#56B634"/>
<path d="M19.22 10.2198L21.7589 12.7344M8 24L8.04259 23.7047C8.19331 22.6597 8.26868 22.1372 8.44009 21.6494C8.5922 21.2165 8.79999 20.8049 9.05835 20.4247C9.34949 19.9962 9.72629 19.623 10.4799 18.8766L20.9353 8.5208C21.6364 7.8264 22.7731 7.8264 23.4742 8.5208C24.1753 9.2152 24.1753 10.341 23.4742 11.0354L12.8269 21.5812C12.1432 22.2584 11.8014 22.597 11.412 22.8662C11.0664 23.1052 10.6937 23.3032 10.3015 23.4561C9.8596 23.6284 9.3857 23.7231 8.43797 23.9124L8 24Z" stroke="white" stroke-width="2" stroke-linecap="round" stroke-linejoin="round"/>
</svg>
