<svg width="16" height="17" viewBox="0 0 16 17" fill="none" xmlns="http://www.w3.org/2000/svg">
<path d="M2.66671 3.83333V13.1667H13.3334V3.83333H2.66671ZM2.00004 2.5H14C14.1769 2.5 14.3464 2.57024 14.4714 2.69526C14.5965 2.82029 14.6667 2.98986 14.6667 3.16667V13.8333C14.6667 14.0101 14.5965 14.1797 14.4714 14.3047C14.3464 14.4298 14.1769 14.5 14 14.5H2.00004C1.82323 14.5 1.65366 14.4298 1.52864 14.3047C1.40361 14.1797 1.33337 14.0101 1.33337 13.8333V3.16667C1.33337 2.98986 1.40361 2.82029 1.52864 2.69526C1.65366 2.57024 1.82323 2.5 2.00004 2.5ZM4.00004 5.16667H6.00004V11.8333H4.00004V5.16667ZM6.66671 5.16667H8.00004V11.8333H6.66671V5.16667ZM8.66671 5.16667H9.33337V11.8333H8.66671V5.16667ZM10 5.16667H12V11.8333H10V5.16667Z" fill="#133308"/>
</svg>
